# xmcd
#
# Track frame offsets:
#	150
#	13913
#	26170
#	37871
#	48823
#	62988
#	77751
#	93956
#	105489
#	117082
#	129007
#	143066
#	154997
#	166975
#	180478
#	196891
#	208936
#	223318
#
# Disc length: 3122 seconds
#
# Revision: 0
# Processed by: cddbd v1.5.2PL0 Copyright (c) Steve Scherf et al.
# Submitted via: audiograbber 1.83.01
#
DISCID=f20c3012
DTITLE=Ladies First! - Jazz Collection CD 05/10
DYEAR=1900
DGENRE=Jazz
TTITLE0=I Apologize
TTITLE1=Black Moonlight
TTITLE2=Lovesick Blues
TTITLE3=Lover, Come Back to me
TTITLE4=Lullaby of the Leaves
TTITLE5=Rock and Roll Blues
TTITLE6=Love For Sale
TTITLE7=No Soap, No Hope Blues
TTITLE8=Speak Low
TTITLE9=The Lady is a Tramp
TTITLE10=Strawberry Moon
TTITLE11=Pagan Love Song
TTITLE12=Ain't This a Wonderful Day
TTITLE13=Somebody's Cryin'
TTITLE14=Vaya Con Dios
TTITLE15=Just One of Those Things
TTITLE16=From This Moment On
TTITLE17=You're the Top (Porter)
EXTD=
EXTT0=
EXTT1=
EXTT2=
EXTT3=
EXTT4=
EXTT5=
EXTT6=
EXTT7=
EXTT8=
EXTT9=
EXTT10=
EXTT11=
EXTT12=
EXTT13=
EXTT14=
EXTT15=
EXTT16=
EXTT17=
PLAYORDER=
